<svg data-v-423bf9ae="" xmlns="http://www.w3.org/2000/svg" viewBox="0 0 246.35839466295195 60" class="font"><!----><!----><!----><g data-v-423bf9ae="" id="d9f62835-5828-497a-a969-1f9c832fe7e3" fill="white" transform="matrix(5.780346757080136,0,0,5.780346757080136,-1.6184978044011586,-19.248554736908552)"><path d="M0.28 3.72L0.28 3.72L0.28 3.72Q0.28 3.50 0.60 3.50L0.60 3.50L0.60 3.50Q0.64 3.50 0.76 3.49L0.76 3.49L0.76 3.49Q0.87 3.49 1.12 3.49L1.12 3.49L1.12 3.49Q1.19 3.49 1.51 3.51L1.51 3.51L1.51 3.51Q1.82 3.53 1.96 3.53L1.96 3.53L1.96 3.53Q2.27 3.53 3.15 3.51L3.15 3.51L3.15 3.51Q4.03 3.49 4.27 3.49L4.27 3.49L4.27 3.49Q5.59 3.49 6.54 4.15L6.54 4.15L6.54 4.15Q7.49 4.82 7.49 6.06L7.49 6.06L7.49 6.06Q7.49 6.75 7.24 7.29L7.24 7.29L7.24 7.29Q6.99 7.83 6.63 8.13L6.63 8.13L6.63 8.13Q6.27 8.44 5.83 8.64L5.83 8.64L5.83 8.64Q5.39 8.85 5.05 8.91L5.05 8.91L5.05 8.91Q4.70 8.97 4.44 8.97L4.44 8.97L4.44 8.97Q3.99 8.97 3.53 8.87L3.53 8.87L3.53 8.87Q3.07 8.76 3.07 8.65L3.07 8.65L3.07 8.65Q3.07 8.44 3.25 8.44L3.25 8.44L3.25 8.44Q3.32 8.44 3.54 8.50L3.54 8.50L3.54 8.50Q3.75 8.55 3.96 8.55L3.96 8.55L3.96 8.55Q4.28 8.55 4.65 8.46L4.65 8.46L4.65 8.46Q5.01 8.37 5.40 8.17L5.40 8.17L5.40 8.17Q5.80 7.97 6.05 7.55L6.05 7.55L6.05 7.55Q6.30 7.14 6.30 6.59L6.30 6.59L6.30 6.59Q6.30 5.66 5.54 4.85L5.54 4.85L5.54 4.85Q4.79 4.05 3.46 4.05L3.46 4.05L3.46 4.05Q3.02 4.05 2.87 4.30L2.87 4.30L2.87 4.30Q2.72 4.56 2.72 5.47L2.72 5.47L2.72 5.47Q2.72 8.39 2.70 8.80L2.70 8.80L2.70 8.80Q2.69 9.21 2.69 11.26L2.69 11.26L2.69 11.26Q2.69 12.49 3.26 12.87L3.26 12.87L3.26 12.87Q3.42 12.96 3.65 12.99L3.65 12.99L3.65 12.99Q3.88 13.02 4.03 13.01L4.03 13.01L4.03 13.01Q4.19 13.01 4.30 13.07L4.30 13.07L4.30 13.07Q4.42 13.13 4.42 13.30L4.42 13.30L4.42 13.30Q4.42 13.54 4.10 13.54L4.10 13.54L4.10 13.54Q3.78 13.54 2.97 13.50L2.97 13.50L2.97 13.50Q2.16 13.47 2.10 13.47L2.10 13.47L2.10 13.47Q1.96 13.47 1.55 13.50L1.55 13.50L1.55 13.50Q1.13 13.52 0.80 13.52L0.80 13.52L0.80 13.52Q0.36 13.52 0.36 13.37L0.36 13.37L0.36 13.37Q0.36 13.29 0.39 13.23L0.39 13.23L0.39 13.23Q0.41 13.17 0.43 13.14L0.43 13.14L0.43 13.14Q0.45 13.10 0.52 13.08L0.52 13.08L0.52 13.08Q0.59 13.05 0.62 13.03L0.62 13.03L0.62 13.03Q0.64 13.02 0.75 13.00L0.75 13.00L0.75 13.00Q0.85 12.98 0.90 12.96L0.90 12.96L0.90 12.96Q0.92 12.95 0.98 12.94L0.98 12.94L0.98 12.94Q1.04 12.94 1.06 12.93L1.06 12.93L1.06 12.93Q1.08 12.92 1.13 12.89L1.13 12.89L1.13 12.89Q1.18 12.85 1.20 12.79L1.20 12.79L1.20 12.79Q1.23 12.73 1.28 12.62L1.28 12.62L1.28 12.62Q1.33 12.52 1.39 12.35L1.39 12.35L1.39 12.35Q1.48 12.08 1.54 10.25L1.54 10.25L1.54 10.25Q1.60 8.41 1.60 7.41L1.60 7.41L1.60 7.41Q1.60 6.54 1.59 5.80L1.59 5.80L1.59 5.80Q1.58 5.07 1.58 5.03L1.58 5.03L1.58 5.03Q1.58 4.65 1.34 4.28L1.34 4.28L1.34 4.28Q1.11 3.91 0.56 3.91L0.56 3.91L0.56 3.91Q0.28 3.91 0.28 3.72ZM11.70 10.82L11.70 10.82L11.70 10.82Q11.70 10.53 11.90 10.53L11.90 10.53L11.90 10.53Q12.08 10.53 12.12 10.67L12.12 10.67L12.12 10.67Q12.26 11.00 12.38 11.25L12.38 11.25L12.38 11.25Q12.50 11.49 12.77 11.85L12.77 11.85L12.77 11.85Q13.03 12.21 13.34 12.44L13.34 12.44L13.34 12.44Q13.65 12.67 14.13 12.84L14.13 12.84L14.13 12.84Q14.62 13.01 15.19 13.01L15.19 13.01L15.19 13.01Q16.24 13.01 16.88 12.45L16.88 12.45L16.88 12.45Q17.51 11.90 17.51 11.00L17.51 11.00L17.51 11.00Q17.51 10.35 17.08 9.90L17.08 9.90L17.08 9.90Q16.65 9.46 16.09 9.27L16.09 9.27L16.09 9.27Q15.53 9.09 14.66 8.77L14.66 8.77L14.66 8.77Q13.80 8.46 13.26 8.13L13.26 8.13L13.26 8.13Q11.98 7.38 11.98 6.08L11.98 6.08L11.98 6.08Q11.98 4.83 12.89 4.08L12.89 4.08L12.89 4.08Q13.79 3.33 15.23 3.33L15.23 3.33L15.23 3.33Q15.76 3.33 16.50 3.56L16.50 3.56L16.50 3.56Q17.23 3.79 17.25 3.79L17.25 3.79L17.25 3.79Q17.29 3.79 17.40 3.74L17.40 3.74L17.40 3.74Q17.51 3.68 17.57 3.68L17.57 3.68L17.57 3.68Q17.75 3.68 17.78 3.79L17.78 3.79L17.78 3.79Q18.07 5.49 18.07 5.70L18.07 5.70L18.07 5.70Q18.07 6.09 17.88 6.09L17.88 6.09L17.88 6.09Q17.75 6.09 17.68 5.89L17.68 5.89L17.68 5.89Q17.51 5.49 17.35 5.24L17.35 5.24L17.35 5.24Q17.19 4.98 17.12 4.91L17.12 4.91L17.12 4.91Q17.05 4.84 16.76 4.58L16.76 4.58L16.76 4.58Q16.00 3.91 14.92 3.91L14.92 3.91L14.92 3.91Q14.06 3.91 13.47 4.33L13.47 4.33L13.47 4.33Q12.88 4.75 12.88 5.46L12.88 5.46L12.88 5.46Q12.88 6.09 13.22 6.50L13.22 6.50L13.22 6.50Q13.57 6.90 14.14 7.13L14.14 7.13L14.14 7.13Q14.71 7.35 15.34 7.55L15.34 7.55L15.34 7.55Q15.97 7.74 16.68 8.09L16.68 8.09L16.68 8.09Q17.39 8.44 17.85 8.93L17.85 8.93L17.85 8.93Q18.41 9.53 18.41 10.43L18.41 10.43L18.41 10.43Q18.41 11.90 17.47 12.76L17.47 12.76L17.47 12.76Q16.53 13.62 15.15 13.62L15.15 13.62L15.15 13.62Q14.18 13.62 13.59 13.52L13.59 13.52L13.59 13.52Q13.01 13.41 12.39 13.09L12.39 13.09L12.39 13.09Q12.21 12.98 11.96 12.00L11.96 12.00L11.96 12.00Q11.70 11.02 11.70 10.82ZM19.60 8.06L19.60 8.06L19.60 8.06Q19.60 7.98 19.65 7.92L19.65 7.92L19.65 7.92Q19.70 7.85 19.78 7.80L19.78 7.80L19.78 7.80Q19.87 7.74 20.03 7.61L20.03 7.61L20.03 7.61Q20.19 7.48 20.34 7.31L20.34 7.31L20.34 7.31Q20.55 7.08 20.78 6.77L20.78 6.77L20.78 6.77Q21.01 6.45 21.15 6.31L21.15 6.31L21.15 6.31Q21.28 6.16 21.41 6.16L21.41 6.16L21.41 6.16Q21.56 6.16 21.56 6.48L21.56 6.48L21.56 6.48Q21.56 6.61 21.53 6.87L21.53 6.87L21.53 6.87Q21.50 7.14 21.50 7.28L21.50 7.28L21.50 7.28Q21.50 7.48 21.58 7.52L21.58 7.52L21.58 7.52Q21.66 7.56 22.08 7.56L22.08 7.56L22.57 7.56L22.57 7.56Q22.88 7.56 23.09 7.53L23.09 7.53L23.09 7.53Q23.31 7.50 23.39 7.46L23.39 7.46L23.39 7.46Q23.48 7.42 23.54 7.39L23.54 7.39L23.54 7.39Q23.60 7.36 23.65 7.36L23.65 7.36L23.65 7.36Q23.79 7.36 23.79 7.52L23.79 7.52L23.79 7.52Q23.79 7.63 23.60 7.96L23.60 7.96L23.60 7.96Q23.42 8.29 23.34 8.29L23.34 8.29L23.34 8.29Q23.13 8.29 22.93 8.28L22.93 8.28L22.93 8.28Q22.74 8.27 22.60 8.27L22.60 8.27L22.60 8.27Q22.46 8.26 22.33 8.25L22.33 8.25L22.33 8.25Q22.20 8.23 22.12 8.22L22.12 8.22L22.12 8.22Q22.04 8.22 21.97 8.21L21.97 8.21L21.97 8.21Q21.91 8.20 21.88 8.20L21.88 8.20L21.85 8.19L21.85 8.19Q21.59 8.19 21.51 8.27L21.51 8.27L21.51 8.27Q21.43 8.36 21.43 8.65L21.43 8.65L21.43 8.65Q21.43 8.81 21.41 9.82L21.41 9.82L21.41 9.82Q21.38 10.84 21.38 11.26L21.38 11.26L21.38 11.26Q21.38 12.17 21.61 12.52L21.61 12.52L21.61 12.52Q21.84 12.88 22.58 12.88L22.58 12.88L22.58 12.88Q22.88 12.88 23.23 12.75L23.23 12.75L23.23 12.75Q23.59 12.61 23.62 12.61L23.62 12.61L23.62 12.61Q23.76 12.61 23.76 12.78L23.76 12.78L23.76 12.78Q23.76 12.98 23.28 13.28L23.28 13.28L23.28 13.28Q22.79 13.58 22.23 13.58L22.23 13.58L22.23 13.58Q20.34 13.58 20.34 11.94L20.34 11.94L20.34 11.73L20.34 11.73Q20.34 11.19 20.36 10.40L20.36 10.40L20.36 10.40Q20.37 9.62 20.38 9.05L20.38 9.05L20.38 9.05Q20.40 8.48 20.40 8.47L20.40 8.47L20.40 8.47Q20.40 8.33 20.34 8.29L20.34 8.29L20.34 8.29Q20.29 8.25 20.10 8.25L20.10 8.25L20.10 8.25Q20.05 8.25 19.96 8.25L19.96 8.25L19.96 8.25Q19.87 8.26 19.84 8.26L19.84 8.26L19.84 8.26Q19.60 8.26 19.60 8.06ZM24.56 10.60L24.56 10.60L24.56 10.60Q24.56 9.31 25.43 8.36L25.43 8.36L25.43 8.36Q26.31 7.41 27.86 7.41L27.86 7.41L27.86 7.41Q29.18 7.41 30.15 8.23L30.15 8.23L30.15 8.23Q31.12 9.06 31.12 10.51L31.12 10.51L31.12 10.51Q31.12 12.00 30.12 12.84L30.12 12.84L30.12 12.84Q29.12 13.69 27.76 13.69L27.76 13.69L27.76 13.69Q26.25 13.69 25.40 12.77L25.40 12.77L25.40 12.77Q24.56 11.86 24.56 10.60ZM25.66 10.12L25.66 10.12L25.66 10.12Q25.66 11.56 26.43 12.42L26.43 12.42L26.43 12.42Q27.20 13.27 28.18 13.27L28.18 13.27L28.18 13.27Q28.98 13.27 29.53 12.66L29.53 12.66L29.53 12.66Q30.07 12.05 30.07 10.93L30.07 10.93L30.07 10.93Q30.07 9.70 29.40 8.74L29.40 8.74L29.40 8.74Q28.73 7.78 27.52 7.78L27.52 7.78L27.52 7.78Q26.80 7.78 26.23 8.36L26.23 8.36L26.23 8.36Q25.66 8.93 25.66 10.12ZM31.98 8.12L31.98 8.12L31.98 8.12Q31.98 7.97 32.17 7.89L32.17 7.89L32.17 7.89Q32.35 7.81 32.87 7.65L32.87 7.65L32.87 7.65Q33.38 7.49 33.82 7.28L33.82 7.28L33.82 7.28Q33.96 7.22 34.02 7.22L34.02 7.22L34.02 7.22Q34.20 7.22 34.20 7.50L34.20 7.50L34.20 7.50Q34.20 7.56 34.20 7.69L34.20 7.69L34.20 7.69Q34.19 7.81 34.19 7.88L34.19 7.88L34.19 7.88Q34.19 8.18 34.20 8.30L34.20 8.30L34.20 8.30Q34.22 8.43 34.24 8.46L34.24 8.46L34.24 8.46Q34.26 8.48 34.30 8.48L34.30 8.48L34.30 8.48Q34.33 8.48 34.51 8.20L34.51 8.20L34.51 8.20Q34.69 7.92 35.03 7.64L35.03 7.64L35.03 7.64Q35.36 7.35 35.77 7.35L35.77 7.35L35.77 7.35Q36.02 7.35 36.43 7.62L36.43 7.62L36.43 7.62Q36.72 7.81 36.72 8.02L36.72 8.02L36.72 8.02Q36.72 8.27 36.61 8.47L36.61 8.47L36.61 8.47Q36.50 8.67 36.39 8.74L36.39 8.74L36.39 8.74Q36.29 8.81 36.25 8.81L36.25 8.81L36.25 8.81Q36.13 8.81 35.85 8.64L35.85 8.64L35.85 8.64Q35.56 8.47 35.18 8.47L35.18 8.47L35.18 8.47Q34.80 8.47 34.48 8.78L34.48 8.78L34.48 8.78Q34.15 9.09 34.15 9.34L34.15 9.34L34.15 10.79L34.15 10.79Q34.15 11.30 34.15 11.61L34.15 11.61L34.15 11.61Q34.16 11.93 34.16 12.00L34.16 12.00L34.16 12.00Q34.16 12.08 34.17 12.14L34.17 12.14L34.17 12.14Q34.17 12.19 34.17 12.26L34.17 12.26L34.17 12.26Q34.17 12.56 34.37 12.77L34.37 12.77L34.37 12.77Q34.57 12.98 34.83 13.02L34.83 13.02L34.83 13.02Q34.92 13.03 35.04 13.05L35.04 13.05L35.04 13.05Q35.17 13.06 35.24 13.07L35.24 13.07L35.24 13.07Q35.31 13.08 35.39 13.10L35.39 13.10L35.39 13.10Q35.48 13.12 35.51 13.16L35.51 13.16L35.51 13.16Q35.55 13.20 35.55 13.26L35.55 13.26L35.55 13.26Q35.55 13.48 35.38 13.48L35.38 13.48L35.38 13.48Q35.14 13.48 34.73 13.45L34.73 13.45L34.73 13.45Q34.33 13.41 34.19 13.41L34.19 13.41L34.19 13.41Q33.74 13.41 33.26 13.45L33.26 13.45L33.26 13.45Q32.79 13.48 32.73 13.48L32.73 13.48L32.73 13.48Q32.59 13.48 32.52 13.45L32.52 13.45L32.52 13.45Q32.45 13.43 32.44 13.40L32.44 13.40L32.44 13.40Q32.42 13.37 32.42 13.31L32.42 13.31L32.42 13.31Q32.42 13.13 32.61 13.08L32.61 13.08L32.61 13.08Q32.97 12.99 33.05 12.72L33.05 12.72L33.05 12.72Q33.12 12.45 33.12 11.55L33.12 11.55L33.12 11.55Q33.12 10.64 33.12 10.05L33.12 10.05L33.12 10.05Q33.11 9.46 33.11 9.30L33.11 9.30L33.11 9.30Q33.11 9.14 33.10 9.04L33.10 9.04L33.10 9.04Q33.10 8.95 33.10 8.88L33.10 8.88L33.10 8.88Q33.10 8.72 33.05 8.62L33.05 8.62L33.05 8.62Q33.01 8.53 32.85 8.44L32.85 8.44L32.85 8.44Q32.69 8.36 32.40 8.36L32.40 8.36L32.40 8.36Q32.38 8.36 32.33 8.35L32.33 8.35L32.33 8.35Q32.27 8.34 32.24 8.34L32.24 8.34L32.24 8.34Q31.98 8.34 31.98 8.12ZM37.46 10.72L37.46 10.72L37.46 10.72Q37.46 9.32 38.26 8.36L38.26 8.36L38.26 8.36Q39.05 7.39 40.31 7.39L40.31 7.39L40.31 7.39Q40.89 7.39 41.38 7.60L41.38 7.60L41.38 7.60Q41.86 7.81 42.13 8.11L42.13 8.11L42.13 8.11Q42.39 8.41 42.57 8.75L42.57 8.75L42.57 8.75Q42.76 9.09 42.82 9.30L42.82 9.30L42.82 9.30Q42.88 9.52 42.88 9.62L42.88 9.62L42.88 9.62Q42.88 9.87 42.31 9.87L42.31 9.87L39.13 9.87L38.71 9.87L38.71 9.87Q38.60 9.87 38.58 9.89L38.58 9.89L38.58 9.89Q38.56 9.91 38.56 10.02L38.56 10.02L38.56 10.02Q38.56 11.34 39.26 12.10L39.26 12.10L39.26 12.10Q39.97 12.85 40.92 12.85L40.92 12.85L40.92 12.85Q41.51 12.85 42.12 12.54L42.12 12.54L42.12 12.54Q42.73 12.22 42.76 12.22L42.76 12.22L42.76 12.22Q42.90 12.22 42.90 12.35L42.90 12.35L42.90 12.35Q42.90 12.40 42.80 12.55L42.80 12.55L42.80 12.55Q42.70 12.70 42.49 12.89L42.49 12.89L42.49 12.89Q42.28 13.09 42.00 13.27L42.00 13.27L42.00 13.27Q41.72 13.45 41.30 13.58L41.30 13.58L41.30 13.58Q40.88 13.71 40.42 13.71L40.42 13.71L40.42 13.71Q39.19 13.71 38.33 12.95L38.33 12.95L38.33 12.95Q37.46 12.19 37.46 10.72ZM38.64 9.34L38.64 9.34L38.64 9.34Q38.64 9.53 38.82 9.53L38.82 9.53L38.82 9.53Q39.20 9.53 40.21 9.49L40.21 9.49L40.21 9.49Q41.22 9.45 41.29 9.45L41.29 9.45L41.29 9.45Q41.48 9.45 41.53 9.41L41.53 9.41L41.53 9.41Q41.58 9.38 41.58 9.28L41.58 9.28L41.58 9.28Q41.58 8.86 41.19 8.30L41.19 8.30L41.19 8.30Q40.80 7.74 40.07 7.74L40.07 7.74L40.07 7.74Q39.40 7.74 39.02 8.29L39.02 8.29L39.02 8.29Q38.64 8.85 38.64 9.34Z"></path></g><!----><!----></svg>